<?xml version="1.0" encoding="UTF-8" standalone="no"?>
<!-- Svg Vector Icons : http://www.onlinewebfonts.com/icon -->

<svg
   xmlns:dc="http://purl.org/dc/elements/1.1/"
   xmlns:cc="http://creativecommons.org/ns#"
   xmlns:rdf="http://www.w3.org/1999/02/22-rdf-syntax-ns#"
   xmlns:svg="http://www.w3.org/2000/svg"
   xmlns="http://www.w3.org/2000/svg"
   xmlns:sodipodi="http://sodipodi.sourceforge.net/DTD/sodipodi-0.dtd"
   xmlns:inkscape="http://www.inkscape.org/namespaces/inkscape"
   version="1.1"
   x="0px"
   y="0px"
   viewBox="0 0 1000 1000"
   enable-background="new 0 0 1000 1000"
   xml:space="preserve"
   id="svg2"
   inkscape:version="0.91 r13725"
   sodipodi:docname="710a8ca45d59a3e1480c5cf7847068af.svg"
   inkscape:export-filename="/home/ulli/git/PiBlaster3/piremote/static/img/audio.png"
   inkscape:export-xdpi="5.7600002"
   inkscape:export-ydpi="5.7600002"><defs
     id="defs14" /><sodipodi:namedview
     pagecolor="#ffffff"
     bordercolor="#666666"
     borderopacity="1"
     objecttolerance="10"
     gridtolerance="10"
     guidetolerance="10"
     inkscape:pageopacity="0"
     inkscape:pageshadow="2"
     inkscape:window-width="720"
     inkscape:window-height="480"
     id="namedview12"
     showgrid="false"
     inkscape:zoom="0.236"
     inkscape:cx="500"
     inkscape:cy="500"
     inkscape:window-x="0"
     inkscape:window-y="30"
     inkscape:window-maximized="0"
     inkscape:current-layer="svg2" /><metadata
     id="metadata4"> Svg Vector Icons : http://www.onlinewebfonts.com/icon <rdf:RDF><cc:Work
     rdf:about=""><dc:format>image/svg+xml</dc:format><dc:type
       rdf:resource="http://purl.org/dc/dcmitype/StillImage" /></cc:Work></rdf:RDF></metadata><g
     id="g6"
     style="fill:#008000"><g
       transform="translate(0.000000,511.000000) scale(0.100000,-0.100000)"
       id="g8"
       style="fill:#008000"><path
         d="M8360,4998.2c-31.5-6.7-1068.6-251.9-2305.9-548.9c-1685-404.9-2285.7-557.9-2391.4-607.4c-263.2-128.2-465.7-393.7-521.9-692.9c-13.5-76.5-22.5-976.4-22.5-2499.4v-2377.9l-128.2,20.3c-186.7,31.5-593.9,4.5-816.6-51.7c-697.4-177.7-1307-670.4-1527.5-1235.1c-171-440.9-128.2-872.9,119.2-1210.3c274.5-373.5,674.9-560.2,1239.6-582.7c654.6-27,1230.6,191.2,1707.5,645.6c265.5,254.2,420.7,501.7,508.4,812.1c45,162,45,222.7,45,2634.3c0,1356.5,6.7,2472.4,18,2476.9c27,18,3952.6,960.6,3993.1,960.6c36,0,38.3-123.7,38.3-1655.7c0-1500.5-2.2-1655.7-36-1642.2c-92.2,36-481.4,38.2-695.1,6.7C6585-704.7,5784.1-1444.8,5734.6-2263.7c-38.2-647.9,371.2-1147.3,1082.1-1316c247.5-60.7,670.4-60.7,938.1-2.2c692.9,155.2,1291.3,598.4,1552.3,1156.3c153,330.7,141.7,69.8,148.5,3444.2c4.5,2020.2,0,3100-15.8,3183.2c-69.7,389.2-400.4,713.1-796.4,787.4C8508.4,5013.9,8461.2,5016.2,8360,4998.2z"
         id="path10"
         style="fill:#008000" /></g></g></svg>