<?xml version="1.0" encoding="UTF-8" standalone="no"?>
<!-- Svg Vector Icons : http://www.onlinewebfonts.com/icon -->

<svg
   xmlns:dc="http://purl.org/dc/elements/1.1/"
   xmlns:cc="http://creativecommons.org/ns#"
   xmlns:rdf="http://www.w3.org/1999/02/22-rdf-syntax-ns#"
   xmlns:svg="http://www.w3.org/2000/svg"
   xmlns="http://www.w3.org/2000/svg"
   xmlns:sodipodi="http://sodipodi.sourceforge.net/DTD/sodipodi-0.dtd"
   xmlns:inkscape="http://www.inkscape.org/namespaces/inkscape"
   version="1.1"
   x="0px"
   y="0px"
   viewBox="0 0 1000 1000"
   enable-background="new 0 0 1000 1000"
   xml:space="preserve"
   id="svg2"
   inkscape:version="0.91 r13725"
   sodipodi:docname="d2c6151860202bda5360c5c3a6e40a7a.svg"><defs
     id="defs20" /><sodipodi:namedview
     pagecolor="#ffffff"
     bordercolor="#666666"
     borderopacity="1"
     objecttolerance="10"
     gridtolerance="10"
     guidetolerance="10"
     inkscape:pageopacity="0"
     inkscape:pageshadow="2"
     inkscape:window-width="720"
     inkscape:window-height="480"
     id="namedview18"
     showgrid="false"
     inkscape:zoom="0.236"
     inkscape:cx="500"
     inkscape:cy="500"
     inkscape:window-x="0"
     inkscape:window-y="30"
     inkscape:window-maximized="0"
     inkscape:current-layer="svg2" /><metadata
     id="metadata4"> Svg Vector Icons : http://www.onlinewebfonts.com/icon <rdf:RDF><cc:Work
     rdf:about=""><dc:format>image/svg+xml</dc:format><dc:type
       rdf:resource="http://purl.org/dc/dcmitype/StillImage" /></cc:Work></rdf:RDF></metadata><g
     id="g6"
     style="fill:#008000"
     inkscape:export-xdpi="5.8706369"
     inkscape:export-ydpi="5.8706369"><g
       transform="translate(0.000000,511.000000) scale(0.100000,-0.100000)"
       id="g8"
       style="fill:#008000"><path
         d="M1154.7,5004.5c-277-34.1-500.6-144.9-703-351.5c-83.1-83.1-181.1-208.8-217.3-279.1c-142.7-274.8-134.2,17-134.2-4273.6c0-4265.1-8.5-3979.6,130-4252.3c132.1-262,385.6-479.3,683.9-585.9l134.2-49l2530.9-6.4c2775.9-6.4,2669.4-10.7,2929.3,121.4c181.1,91.6,328.1,217.3,443.1,377.1c144.9,202.4,202.4,375,217.3,641.3l10.7,219.4H4380.1H1580.7l-108.7,51.1c-123.6,57.5-225.8,170.4-262,287.6c-17.1,57.5-23.4,553.9-23.4,1721.4V264.4l53.3,108.6c32,59.6,89.5,136.4,132.1,166.2c157.7,121.4,36.2,117.2,3035.8,117.2h2767.4l-6.4,475.1c-6.4,402.7-12.8,483.6-44.7,541.1c-63.9,117.2-166.2,219.4-279.1,279.1l-108.6,57.5l-1182.4,10.7c-1082.2,10.6-1188.8,14.9-1242,46.9c-112.9,74.6-110.8,51.1-121.4,1305.9l-10.7,1171.7l-59.6,121.4c-68.2,136.4-170.4,236.5-311,302.5c-95.9,44.7-125.7,44.7-1312.3,46.9C1830,5017.3,1225,5013,1154.7,5004.5z"
         id="path10"
         style="fill:#008000" /><path
         d="M4723.1,3915.9c0-1031.1,4.3-1101.4,40.5-1186.6c76.7-166.2,66-166.2,1046-172.6c475.1-2.1,975.7-2.1,1114.2,0l249.3,6.4l-1225,1225l-1225,1225V3915.9z"
         id="path12"
         style="fill:#008000" /><path
         d="M1866.2,70.5c-29.8-17-74.6-57.5-95.9-89.5c-38.3-57.5-40.5-119.3-40.5-1369.8c0-1446.5-6.4-1374.1,132.1-1463.6c55.4-36.2,268.4-38.3,3958.3-38.3c3794.2,0,3900.8,2.1,3958.3,40.5c125.7,85.2,121.4,42.6,121.4,1461.4c0,1431.6,4.3,1378.4-127.8,1457.2c-55.4,31.9-385.6,34.1-3956.2,34.1C2496.8,100.3,1913.1,96.1,1866.2,70.5z M4446.1-436.5c95.9-46.9,104.4-123.6,104.4-882l2.1-707.3l434.6-6.4c392-6.4,438.9-10.7,479.3-46.9c87.4-78.8,46.9-230.1-68.1-257.8c-25.6-8.5-294-10.7-594.4-6.4c-611.4,6.4-600.8,4.3-634.9,157.7c-25.6,108.6-25.6,1508.3,0,1617C4201.1-425.9,4316.2-370.5,4446.1-436.5z M6627.7-440.8c38.3-19.2,89.5-68.2,112.9-112.9c98-174.7,645.5-1574.4,645.5-1646.8c0-102.3-78.8-176.8-185.4-176.8c-98,0-142.7,55.4-236.5,296.1l-72.4,181.1H6502h-389.9l-27.7-78.8c-12.8-44.7-53.3-144.9-87.3-223.7c-51.1-110.8-76.7-147-125.7-164c-125.7-42.6-268.4,74.6-240.7,198.1c29.8,136.3,630.6,1623.4,675.3,1670.2C6391.2-404.6,6508.4-385.4,6627.7-440.8z M8753.8-470.6c328.1-125.7,547.5-473,396.2-634.9c-98-104.4-208.8-49-343,172.6C8719.7-792.3,8594-722,8423.6-722c-285.5,0-453.8-174.7-509.2-528.3c-42.6-279.1,23.4-560.3,168.3-696.7c178.9-170.4,502.8-161.9,671.1,17.1c32,34.1,80.9,117.2,110.8,183.2c55.4,125.7,102.3,166.2,187.5,166.2c59.6-2.1,106.5-36.2,142.7-104.4c21.3-38.4,21.3-70.3,2.1-149.1c-91.6-370.7-462.3-590.1-901.2-534.7c-221.6,27.7-343,76.7-473,196C7433-1817,7405.3-1071.4,7769.6-677.3C7995.4-434.4,8419.3-344.9,8753.8-470.6z M3824.1-485.5c61.8-42.6,63.9-157.7,2.1-213c-40.5-36.2-87.3-40.5-468.7-46.9l-424-8.5v-230.1v-230.1l360-8.5c317.4-6.4,364.3-10.7,404.8-46.9c57.5-51.1,57.5-149.1,2.1-204.5c-38.3-38.3-70.3-42.6-402.6-42.6h-362.2l-6.4-381.3c-6.4-332.4-10.7-387.7-44.7-424c-81-89.5-247.1-68.2-302.5,40.5c-46.9,89.5-46.9,1653.2,0,1744.8c17,32,42.6,63.9,57.5,70.3c14.9,6.4,277,12.8,581.6,12.8C3692-451.5,3783.6-455.7,3824.1-485.5z"
         id="path14"
         style="fill:#008000" /><path
         d="M6421-1041.6c-42.6-115-104.4-287.6-140.6-383.5l-63.9-176.8H6502h285.5l-72.4,198.1c-127.8,353.7-204.5,556-210.9,564.6C6499.9-837.1,6461.5-926.5,6421-1041.6z"
         id="path16"
         style="fill:#008000" /></g></g></svg>