<?xml version="1.0" encoding="UTF-8" standalone="no"?>
<!-- Svg Vector Icons : http://www.onlinewebfonts.com/icon -->

<svg
   xmlns:dc="http://purl.org/dc/elements/1.1/"
   xmlns:cc="http://creativecommons.org/ns#"
   xmlns:rdf="http://www.w3.org/1999/02/22-rdf-syntax-ns#"
   xmlns:svg="http://www.w3.org/2000/svg"
   xmlns="http://www.w3.org/2000/svg"
   xmlns:sodipodi="http://sodipodi.sourceforge.net/DTD/sodipodi-0.dtd"
   xmlns:inkscape="http://www.inkscape.org/namespaces/inkscape"
   version="1.1"
   x="0px"
   y="0px"
   viewBox="0 0 1000 1000"
   enable-background="new 0 0 1000 1000"
   xml:space="preserve"
   id="svg2"
   inkscape:version="0.91 r13725"
   sodipodi:docname="0e976745626cee961e8d78552d9b45fa.svg"><defs
     id="defs20" /><sodipodi:namedview
     pagecolor="#ffffff"
     bordercolor="#666666"
     borderopacity="1"
     objecttolerance="10"
     gridtolerance="10"
     guidetolerance="10"
     inkscape:pageopacity="0"
     inkscape:pageshadow="2"
     inkscape:window-width="972"
     inkscape:window-height="747"
     id="namedview18"
     showgrid="false"
     inkscape:zoom="0.236"
     inkscape:cx="495.76271"
     inkscape:cy="500"
     inkscape:window-x="0"
     inkscape:window-y="30"
     inkscape:window-maximized="0"
     inkscape:current-layer="svg2" /><metadata
     id="metadata4"> Svg Vector Icons : http://www.onlinewebfonts.com/icon <rdf:RDF><cc:Work
     rdf:about=""><dc:format>image/svg+xml</dc:format><dc:type
       rdf:resource="http://purl.org/dc/dcmitype/StillImage" /></cc:Work></rdf:RDF></metadata><g
     id="g6"
     style="fill:#00bb9c;fill-opacity:1"
     inkscape:export-xdpi="5.8730693"
     inkscape:export-ydpi="5.8730693"><g
       transform="translate(0.000000,511.000000) scale(0.100000,-0.100000)"
       id="g8"
       style="fill:#00bb9c;fill-opacity:1"><path
         d="M1158.1,5002.7c-276.8-34.1-500.4-144.8-702.8-351.4c-164-164-268.3-340.7-319.4-534.5c-46.9-185.3-49-7836.8,0-8017.8c102.2-383.3,394-694.2,781.6-834.8l134.2-49l2529.9-6.4c2774.8-6.4,2668.3-10.6,2928.1,121.4c274.7,138.4,483.4,368.4,592,653.8c42.6,112.9,59.6,200.2,68.2,364.2l10.6,219.3H5063.8H2947l-108.6,51.1c-127.8,59.6-230,174.6-261.9,298.1c-19.2,61.7-23.4,551.5-19.2,1739.9l6.4,1652.5l63.9,104.3c40.5,63.9,104.3,127.8,168.2,168.2l104.4,63.9l2138.1,6.4l2138.1,4.3l-6.4,474.9c-6.4,402.5-12.8,483.4-44.7,540.9c-63.9,117.1-166.1,219.3-279,279l-108.6,57.5l-1181.9,10.6c-1081.8,10.6-1188.3,14.9-1241.5,46.9c-112.9,74.5-110.7,51.1-121.4,1305.4l-10.6,1171.3l-59.6,121.4c-68.2,136.3-170.4,236.4-310.9,302.4c-95.8,44.7-125.6,44.7-1311.8,46.9C1833.2,5015.4,1228.4,5009,1158.1,5002.7z"
         id="path10"
         style="fill:#00bb9c;fill-opacity:1" /><path
         d="M4725.1,3908.1c0-1043.5,2.1-1107.4,40.5-1181.9c23.4-42.6,72.4-98,112.9-121.4c66-40.5,115-42.6,932.7-49c474.9-2.1,975.3-2.1,1113.8,0l249.2,6.4L5949.6,3786.7L4725.1,5011.2V3908.1z"
         id="path12"
         style="fill:#00bb9c;fill-opacity:1" /><path
         d="M3211,53.5c-40.5-27.7-83.1-80.9-98-121.4c-19.2-55.4-25.5-415.3-25.5-1331c-2.1-1386.3-6.4-1345.9,132-1446l59.6-44.7h3209.2c3028.3,0,3213.5,2.1,3277.4,38.3c138.4,74.5,134.2,27.7,134.2,1463c0,1431.1,4.3,1377.8-127.8,1456.6c-55.4,31.9-336.5,34.1-3275.3,34.1H3283.4L3211,53.5z M4448.3-449c29.8-8.5,68.1-42.6,87.3-78.8c17-36.2,98-317.3,178.9-624c80.9-306.7,153.3-545.2,161.9-530.3s80.9,276.8,159.7,579.2c102.2,385.4,159.7,570.7,191.7,606.9c40.4,46.9,68.1,55.4,204.4,61.7c189.5,10.7,304.5-29.8,336.5-112.9c29.8-80.9,27.7-1624.9-2.1-1712.2c-25.6-74.5-74.5-108.6-157.6-108.6c-83,0-132,34.1-157.6,108.6c-14.9,44.7-23.4,302.4-25.6,719.8l-2.1,651.6l-172.5-679.3c-195.9-764.5-213-800.7-370.6-800.7c-93.7,0-164,42.6-206.6,123.5c-17,31.9-106.5,355.6-198.1,717.7l-166.1,660.2l-10.6-709.1l-10.6-711.3l-51.1-40.4c-68.1-55.4-164-51.1-225.7,12.8l-53.2,51.1v851.8c0,468.5,6.4,866.7,12.8,885.9c8.5,21.3,44.7,49,80.9,66C4120.4-429.9,4356.7-423.5,4448.3-449z M7382.8-493.8c129.9-55.4,242.8-176.7,276.8-296c36.2-117.1,31.9-372.7-6.4-466.4c-51.1-117.1-174.6-232.1-308.8-283.2c-91.6-36.2-183.1-49-419.5-57.5l-304.5-10.6v-323.7c0-321.6,0-323.7-55.4-381.2c-98-98-242.8-66-298.1,61.7c-38.3,95.8-44.7,1582.3-6.4,1693c42.6,117.1,100.1,129.9,583.5,121.4C7235.9-442.6,7278.5-446.9,7382.8-493.8z M8875.7-504.4c155.5-85.2,221.5-187.4,232.1-362c10.7-153.3-23.4-242.8-134.2-357.8l-70.3-72.4l97.9-72.4c255.5-187.4,274.7-532.4,49-792.2c-142.7-161.8-457.9-247-698.5-187.4c-210.8,53.2-394,223.6-453.6,419.5c-31.9,108.6,2.1,200.2,89.4,230c93.7,31.9,155.4-10.7,219.3-153.3c80.9-181,153.3-242.8,291.8-253.4c146.9-10.7,242.8,40.5,308.8,164c57.5,110.7,61.7,219.3,10.6,317.3c-63.9,125.6-134.2,161.8-325.8,166.1c-185.3,2.1-253.4,36.2-253.4,123.5c0,87.3,49,123.5,198,140.6c172.5,21.3,259.8,63.9,302.4,146.9c53.2,104.4,40.5,202.3-38.3,289.6c-63.9,70.3-80.9,76.7-181,76.7c-140.6,0-202.3-38.3-272.6-181c-66-129.9-80.9-142.7-172.5-142.7c-119.2,0-172.5,142.7-104.3,272.6c53.2,100.1,195.9,221.5,315.2,264.1C8460.4-406.4,8724.5-423.5,8875.7-504.4z"
         id="path14"
         style="fill:#00bb9c;fill-opacity:1" /><path
         d="M6620.5-1017.6v-289.6l240.6,8.5c270.5,8.5,353.5,40.5,411,149.1c44.7,85.2,29.8,255.5-25.5,317.3c-70.3,80.9-164,104.3-402.5,104.3h-223.6V-1017.6z"
         id="path16"
         style="fill:#00bb9c;fill-opacity:1" /></g></g></svg>