<?xml version="1.0" encoding="UTF-8" standalone="no"?>
<!-- Svg Vector Icons : http://www.onlinewebfonts.com/icon -->

<svg
   xmlns:dc="http://purl.org/dc/elements/1.1/"
   xmlns:cc="http://creativecommons.org/ns#"
   xmlns:rdf="http://www.w3.org/1999/02/22-rdf-syntax-ns#"
   xmlns:svg="http://www.w3.org/2000/svg"
   xmlns="http://www.w3.org/2000/svg"
   xmlns:sodipodi="http://sodipodi.sourceforge.net/DTD/sodipodi-0.dtd"
   xmlns:inkscape="http://www.inkscape.org/namespaces/inkscape"
   version="1.1"
   x="0px"
   y="0px"
   viewBox="0 0 1000 1000"
   enable-background="new 0 0 1000 1000"
   xml:space="preserve"
   id="svg2"
   inkscape:version="0.91 r13725"
   sodipodi:docname="5a885b65786ea2f596df25549629e3c9.svg"><defs
     id="defs22" /><sodipodi:namedview
     pagecolor="#ffffff"
     bordercolor="#666666"
     borderopacity="1"
     objecttolerance="10"
     gridtolerance="10"
     guidetolerance="10"
     inkscape:pageopacity="0"
     inkscape:pageshadow="2"
     inkscape:window-width="720"
     inkscape:window-height="480"
     id="namedview20"
     showgrid="false"
     inkscape:zoom="0.236"
     inkscape:cx="500"
     inkscape:cy="500"
     inkscape:window-x="0"
     inkscape:window-y="30"
     inkscape:window-maximized="0"
     inkscape:current-layer="svg2" /><metadata
     id="metadata4"> Svg Vector Icons : http://www.onlinewebfonts.com/icon <rdf:RDF><cc:Work
     rdf:about=""><dc:format>image/svg+xml</dc:format><dc:type
       rdf:resource="http://purl.org/dc/dcmitype/StillImage" /></cc:Work></rdf:RDF></metadata><g
     id="g6"
     style="fill:#0000ff"
     inkscape:export-xdpi="5.8800001"
     inkscape:export-ydpi="5.8800001"><g
       transform="translate(0.000000,511.000000) scale(0.100000,-0.100000)"
       id="g8"
       style="fill:#0000ff"><path
         d="M1011,4969.5c-297.9-72.4-625.7-327.7-768.2-600.1C89.5,4073.6,100.2,4407.7,100.2,94.1c0-3696.5,2.1-3879.5,38.3-3998.7c100-319.2,332-610.7,602.3-751.2c266-140.4,123.4-134.1,2902.7-134.1c2766.5,0,2615.4-6.4,2892.1,129.8c91.5,44.7,189.4,121.3,289.4,219.2c236.2,238.3,351.1,515,351.1,847v166H5179.9H3183.7l-114.9,70.2c-83,51.1-129.8,97.9-178.8,185.1l-66,117.1v1659.9V264.3l48.9,100c55.3,110.7,144.7,195.8,259.6,249c66,29.8,293.7,34.1,2060,40.4l1985.5,6.4l-6.4,461.8l-6.4,461.8l-63.8,114.9c-66,121.3-185.1,221.3-325.6,278.8c-63.8,25.5-293.7,31.9-1253.4,42.6l-1174.7,10.6l-63.8,61.7c-36.2,36.2-76.6,97.9-87.3,138.3c-12.8,46.8-21.3,523.5-21.3,1196V4546l-66,131.9c-70.2,138.3-142.6,208.6-295.8,276.7c-93.6,42.6-134.1,44.7-1393.9,42.6C1449.4,4995,1094,4988.7,1011,4969.5z"
         id="path10"
         style="fill:#0000ff" /><path
         d="M4733,3877.8c6.4-1104.5,6.4-1132.1,51.1-1191.7c23.4-31.9,76.6-76.6,119.2-97.9c68.1-34.1,159.6-36.2,1174.7-31.9l1098.1,6.4L5952.4,3786.3L4728.7,5009.9L4733,3877.8z"
         id="path12"
         style="fill:#0000ff" /><path
         d="M3500.8,62.1c-138.3-83-134.1-36.2-134.1-1451.4c0-1434.3-4.3-1387.5,149-1468.4c70.2-36.2,206.4-38.3,3113.4-38.3c3345.4,0,3143.2-8.5,3228.3,131.9c40.4,68.1,42.6,104.3,42.6,1364.1c0,1427.9,4.3,1379-134.1,1462c-66,42.6-129.8,42.6-3132.5,42.6C3630.6,104.7,3566.8,104.7,3500.8,62.1z M9038.1-472c40.4-38.3,42.6-74.5,48.9-604.4l6.4-563.9h61.7c74.5,0,174.5-36.2,195.8-70.2c29.8-46.8,17-136.2-25.5-174.5c-21.3-19.2-85.1-42.6-138.3-46.8l-95.8-12.8v-146.8c0-208.5-38.3-272.4-163.9-272.4c-119.2,0-155.3,57.5-155.3,253.3v170.2l-393.7,6.4c-391.6,6.4-393.7,6.4-449,61.7c-36.2,38.3-55.3,80.9-57.5,131.9c-2.1,66,51.1,146.8,453.3,683.1c251.1,334.1,476.7,617.1,500.1,627.8C8882.8-399.7,8987-418.8,9038.1-472z M4645.7-482.6c48.9-42.6,78.7-140.5,242.6-770.4c68.1-259.6,125.6-470.3,129.8-468.2c2.1,4.3,72.4,266,155.4,581c85.1,317.1,170.2,598,191.5,627.8c46.8,63.8,176.7,91.5,340.5,74.5c144.7-14.9,183-36.2,212.8-119.2c31.9-89.4,31.9-1572.7,2.1-1683.3c-25.5-91.5-72.4-123.4-178.8-123.4c-53.2,0-85.1,14.9-117.1,55.3c-42.6,55.3-44.7,83-46.8,751.2l-2.1,693.7l-166-653.3c-180.9-717.2-197.9-770.4-263.9-815c-51.1-38.3-189.4-42.6-251.1-8.5c-68.1,36.2-108.5,159.6-274.5,834.2L4462.7-870l-10.6-702.3c-10.6-651.2-12.8-704.4-51.1-747c-44.7-48.9-157.5-59.6-225.6-23.4c-74.5,40.4-85.1,157.5-85.1,953.4c0,853.4,6.4,906.6,121.3,932.1c31.9,6.4,70.2,17,80.9,21.3C4347.8-414.6,4607.4-448.6,4645.7-482.6z M7354.8-478.4c146.8-44.7,244.7-127.7,306.4-263.9c108.5-240.5,48.9-578.8-127.7-712.9c-129.8-100-238.3-125.6-570.3-140.5l-308.6-12.8l-10.6-336.2c-10.6-323.5-12.8-340.5-61.7-378.8c-74.5-59.6-195.8-53.2-259.6,14.9l-51.1,55.3v851.2v851.2l59.6,51.1c59.6,51.1,66,51.1,491.6,51.1C7133.5-448.6,7282.5-457.1,7354.8-478.4z"
         id="path14"
         style="fill:#0000ff" /><path
         d="M8489.1-1261.5l-270.3-368.2l268.1-6.4c149-2.1,272.4-2.1,278.8,2.1c4.3,4.3,4.3,174.5,2.1,374.6l-6.4,366L8489.1-1261.5z"
         id="path16"
         style="fill:#0000ff" /><path
         d="M6658.9-740.1c-8.5-6.4-14.9-136.2-14.9-287.3v-272.4h223.4c251.1,0,338.4,25.5,412.9,119.2c40.4,51.1,46.8,80.9,40.4,183c-10.6,149-63.8,214.9-197.9,249C7020.7-723.1,6680.2-716.7,6658.9-740.1z"
         id="path18"
         style="fill:#0000ff" /></g></g></svg>