<?xml version="1.0" encoding="UTF-8" standalone="no"?>
<!-- Svg Vector Icons : http://www.onlinewebfonts.com/icon -->

<svg
   xmlns:dc="http://purl.org/dc/elements/1.1/"
   xmlns:cc="http://creativecommons.org/ns#"
   xmlns:rdf="http://www.w3.org/1999/02/22-rdf-syntax-ns#"
   xmlns:svg="http://www.w3.org/2000/svg"
   xmlns="http://www.w3.org/2000/svg"
   xmlns:sodipodi="http://sodipodi.sourceforge.net/DTD/sodipodi-0.dtd"
   xmlns:inkscape="http://www.inkscape.org/namespaces/inkscape"
   version="1.1"
   x="0px"
   y="0px"
   viewBox="0 0 1000 1000"
   enable-background="new 0 0 1000 1000"
   xml:space="preserve"
   id="svg2"
   inkscape:version="0.91 r13725"
   sodipodi:docname="f7af195d159c21ce6c66874a0f2ee504.svg"><defs
     id="defs20" /><sodipodi:namedview
     pagecolor="#ffffff"
     bordercolor="#666666"
     borderopacity="1"
     objecttolerance="10"
     gridtolerance="10"
     guidetolerance="10"
     inkscape:pageopacity="0"
     inkscape:pageshadow="2"
     inkscape:window-width="720"
     inkscape:window-height="480"
     id="namedview18"
     showgrid="false"
     inkscape:zoom="0.236"
     inkscape:cx="500"
     inkscape:cy="500"
     inkscape:window-x="0"
     inkscape:window-y="30"
     inkscape:window-maximized="0"
     inkscape:current-layer="svg2" /><metadata
     id="metadata4"> Svg Vector Icons : http://www.onlinewebfonts.com/icon <rdf:RDF><cc:Work
     rdf:about=""><dc:format>image/svg+xml</dc:format><dc:type
       rdf:resource="http://purl.org/dc/dcmitype/StillImage" /></cc:Work></rdf:RDF></metadata><g
     id="g6"
     style="fill:#800000"
     inkscape:export-xdpi="5.8776417"
     inkscape:export-ydpi="5.8776417"><g
       transform="translate(0.000000,511.000000) scale(0.100000,-0.100000)"
       id="g8"
       style="fill:#800000"><path
         d="M1156.9,5005.8c-481.4-57.5-886-406.8-1022.3-881.8c-31.9-112.9-36.2-436.6-34.1-4014.8c0-3476,4.3-3904.1,34.1-4017c108.6-413.2,464.3-754,886-854.1c204.5-46.9,5028.6-46.9,5235.2,0c530.3,125.7,918,617.7,918,1165v166.1H4745.7c-2651.7,0-2513.2-6.4-2624,123.5c-115,138.5-112.9,95.9-112.9,1910.5c0,1601.7,2.1,1686.9,40.5,1757.2c55.4,104.4,136.3,187.4,236.4,240.7l85.2,46.9l2402.5,6.4l2400.4,4.3v432.4c0,485.6-14.9,568.7-136.3,711.4c-40.5,44.7-123.5,110.7-185.3,144.8l-115,63.9l-1182.1,10.6c-1314.1,12.8-1254.5,4.3-1335.4,155.5c-34.1,61.8-38.3,172.5-49,1250.2L4160,4609.7l-57.5,98c-70.3,119.3-161.9,200.2-293.9,262c-93.7,42.6-125.7,44.7-1309.9,46.9C1832.1,5018.6,1227.2,5012.2,1156.9,5005.8z"
         id="path10"
         style="fill:#800000" /><path
         d="M4724.4,3909c0-986.1,4.3-1111.8,36.2-1177.8c42.6-89.5,132.1-149.1,251.3-166.1c46.9-6.4,551.6-10.6,1124.6-6.4l1037.3,6.4L5949.1,3789.7L4724.4,5014.4V3909z"
         id="path12"
         style="fill:#800000" /><path
         d="M2641.4,32.6l-78.8-72.4l-6.4-1324.8c-4.3-1299.2-4.3-1326.9,38.3-1395.1c83.1-136.3-149.1-127.8,3631.4-127.8c3778.4,0,3548.4-8.5,3631.4,127.8c40.5,66,42.6,104.4,42.6,1384.4V-61.1l-83.1,83.1l-83.1,83.1H6228.1H2722.3L2641.4,32.6z M4409.2-429.6c272.6-59.6,523.9-264.1,613.4-502.7c70.3-187.4,98-443,68.2-632.5c-55.4-362.1-189.6-566.6-460.1-705l-168.3-85.2h-289.7c-281.2,0-293.9,2.1-432.4,68.2c-253.4,119.3-408.9,328-475,634.7c-57.5,272.6-25.6,553.8,87.3,785.9c66,136.3,247.1,317.3,364.2,368.5C3921.5-410.4,4192-384.9,4409.2-429.6z M6703.1-465.8c168.3-66,272.6-142.7,345-253.5c76.7-123.5,83.1-236.4,14.9-298.2c-110.8-100.1-223.6-72.4-321.6,76.7c-123.5,187.4-257.7,251.3-479.2,230c-304.6-25.6-477.1-227.9-509-594.2c-14.9-161.9,19.2-370.6,80.9-487.7c53.2-106.5,193.8-221.5,306.7-253.5c147-40.5,402.6-19.2,549.5,49l121.4,55.4v191.7v189.6l-210.9,8.5c-170.4,4.3-219.4,14.9-255.6,46.9c-55.4,51.1-57.5,121.4-4.2,185.3c40.5,49,49,51.1,383.4,51.1c457.9,0,436.6,21.3,445.1-434.5c6.4-332.3,6.4-336.5-46.9-398.3c-61.8-74.6-281.1-187.4-455.8-234.3c-181-46.9-513.3-42.6-685.8,10.7c-300.3,93.7-489.9,296-585.7,628.3c-51.1,176.8-36.2,549.5,29.8,722C5538-683.1,5789.4-485,6130.1-419C6255.8-395.5,6590.2-423.2,6703.1-465.8z M8605-429.6c225.8-46.9,408.9-168.3,489.9-323.8c74.6-147,49-264.1-68.2-313.1c-93.7-38.3-170.4,2.1-266.2,140.6C8641.3-753.3,8566.7-715,8343.1-715c-166.1,0-191.7-6.4-287.5-63.9c-210.9-129.9-317.4-430.2-266.2-751.8c42.6-276.9,174.6-460,374.9-515.4c138.4-38.3,402.5-19.2,553.8,44.7l127.8,51.1l6.4,198.1l6.4,195.9h-191.7c-104.3,0-215.1,8.5-244.9,21.3c-129.9,49-115,210.9,23.4,257.7c46.9,14.9,178.9,21.3,362.1,14.9c283.3-8.5,289.7-8.5,338.6-66c49-57.5,51.1-72.4,51.1-396.2c0-385.5-4.3-398.3-204.5-498.4c-391.9-198.1-890.3-200.2-1197-6.4c-255.6,159.7-408.9,475-408.9,830.6c0,400.4,174.6,726.3,470.7,875.4C8061.9-419,8368.6-380.6,8605-429.6z"
         id="path14"
         style="fill:#800000" /><path
         d="M4064.2-723.5c-276.9-55.4-426-287.5-426-658.1c0-330.1,93.7-526.1,300.3-630.4c300.3-149.1,634.7,4.2,732.7,334.4c40.5,138.4,40.5,445.2,0,583.6C4594.5-838.5,4321.9-670.3,4064.2-723.5z"
         id="path16"
         style="fill:#800000" /></g></g></svg>