<?xml version="1.0" encoding="UTF-8" standalone="no"?>
<!-- Svg Vector Icons : http://www.onlinewebfonts.com/icon -->

<svg
   xmlns:dc="http://purl.org/dc/elements/1.1/"
   xmlns:cc="http://creativecommons.org/ns#"
   xmlns:rdf="http://www.w3.org/1999/02/22-rdf-syntax-ns#"
   xmlns:svg="http://www.w3.org/2000/svg"
   xmlns="http://www.w3.org/2000/svg"
   xmlns:sodipodi="http://sodipodi.sourceforge.net/DTD/sodipodi-0.dtd"
   xmlns:inkscape="http://www.inkscape.org/namespaces/inkscape"
   version="1.1"
   x="0px"
   y="0px"
   viewBox="0 0 1000 1000"
   enable-background="new 0 0 1000 1000"
   xml:space="preserve"
   id="svg2"
   inkscape:version="0.91 r13725"
   sodipodi:docname="be6f45247f4fcbfa585c2fff6b5c7e2d.svg"><defs
     id="defs20" /><sodipodi:namedview
     pagecolor="#ffffff"
     bordercolor="#666666"
     borderopacity="1"
     objecttolerance="10"
     gridtolerance="10"
     guidetolerance="10"
     inkscape:pageopacity="0"
     inkscape:pageshadow="2"
     inkscape:window-width="720"
     inkscape:window-height="480"
     id="namedview18"
     showgrid="false"
     inkscape:zoom="0.236"
     inkscape:cx="500"
     inkscape:cy="500"
     inkscape:window-x="0"
     inkscape:window-y="30"
     inkscape:window-maximized="0"
     inkscape:current-layer="svg2" /><metadata
     id="metadata4"> Svg Vector Icons : http://www.onlinewebfonts.com/icon <rdf:RDF><cc:Work
     rdf:about=""><dc:format>image/svg+xml</dc:format><dc:type
       rdf:resource="http://purl.org/dc/dcmitype/StillImage" /></cc:Work></rdf:RDF></metadata><g
     id="g6"
     style="fill:#ff0000"
     inkscape:export-xdpi="5.867703"
     inkscape:export-ydpi="5.867703"><g
       transform="translate(0.000000,511.000000) scale(0.100000,-0.100000)"
       id="g8"
       style="fill:#ff0000"><path
         d="M1154.6,5007.1C671,4947.5,253.4,4585.3,132,4116.6c-27.7-106.5-32-634.9-32-4007.3c0-3476.9,4.3-3900.8,34.1-4018c106.5-411.2,460.2-754.2,884.1-854.3c204.5-46.9,5029.9-46.9,5236.6,0c530.5,125.7,918.2,617.8,918.2,1165.4v166.2H4804c-1606.3,0-2396.7,8.5-2452.1,23.4c-100.1,27.7-236.5,147-298.3,262.1c-46.9,87.3-46.9,89.5-53.3,1704.3C1994,345.7,1991.8,324.4,2128.2,480c36.2,40.5,106.5,95.9,153.4,121.4l87.3,46.9l2403.1,6.4l2401,4.3v432.5c0,490-14.9,568.8-142.7,715.8c-40.5,49-123.6,115-185.4,147l-108.7,57.5l-1182.4,10.7c-1314.5,12.8-1254.8,4.3-1335.8,155.5c-36.2,61.8-38.3,164-42.6,1227.1l-4.2,1159l-55.4,112.9c-63.9,127.8-168.3,230.1-306.8,294c-95.9,44.7-125.7,44.7-1312.3,46.9C1829.9,5019.9,1224.9,5013.5,1154.6,5007.1z"
         id="path10"
         style="fill:#ff0000" /><path
         d="M4723,3910c0-986.4,4.3-1112.1,36.2-1178.1c42.6-89.5,132.1-149.1,251.4-166.2c46.9-6.4,551.8-10.7,1124.9-6.4l1037.5,6.4l-1225,1225l-1225,1225V3910z"
         id="path12"
         style="fill:#ff0000" /><path
         d="M2639.5,32.6l-78.8-72.5v-1344.3v-1342.2l63.9-66.1c34.1-34.1,98-74.6,140.6-85.2c51.1-14.9,1278.3-19.2,3506.7-17c3229.7,6.4,3430,8.5,3493.9,44.7c138.5,74.6,134.2,25.6,134.2,1476.4V-61.2l-83.1,83.1l-83.1,83.1H6227.1H2720.4L2639.5,32.6z M3562-478.7c25.6-38.4,308.9-1220.8,308.9-1286.8c0-49,36.2,68.2,138.5,453.8c187.5,700.9,217.3,790.4,279.1,839.4c106.5,85.2,311,49,370.7-61.8c19.2-36.2,340.9-1197.3,340.9-1229.3c0-63.9,40.5,91.6,147,571c70.3,308.9,132.1,588,140.6,619.9c23.4,93.8,87.3,144.9,181.1,144.9c112.9,0,170.4-57.5,170.4-168.3c0-91.6-338.8-1499.8-396.3-1640.4c-44.8-110.8-130-159.8-247.1-144.9c-102.3,12.8-155.5,59.7-189.6,161.9c-14.9,42.6-100.1,349.4-191.7,683.9c-89.5,334.5-170.4,592.3-176.8,575.2c-6.4-17.1-85.2-300.4-174.7-628.5c-89.5-328.1-176.8-628.5-193.9-666.8c-87.3-183.2-343-172.5-419.7,17.1C3596-2106.4,3253-687.5,3253-602.3c0,110.8,68.2,174.7,185.4,174.7C3510.8-427.6,3536.4-438.3,3562-478.7z M6804.5-478.7c34.1-29.8,78.8-89.5,98-134.2c100.1-225.8,588-1455.1,607.2-1527.5c38.3-138.5-42.6-247.1-183.2-247.1c-87.4,0-138.5,66.1-230.1,294l-78.8,196l-383.5-4.3l-383.5-6.4l-78.8-198.1c-95.9-236.5-132.1-281.2-228-281.2c-98,0-176.8,78.8-176.8,176.8c0,72.5,585.9,1593.6,649.8,1683C6495.6-414.8,6697.9-389.3,6804.5-478.7z M7893.1-478.7c21.3-29.8,100.1-234.4,174.7-453.8c74.6-219.4,183.2-539,240.7-709.4l108.7-306.8l238.6,720.1c134.2,396.2,257.8,739.3,277,760.6c55.4,61.8,189.6,53.3,257.8-14.9c44.7-44.8,53.3-68.2,42.6-132.1c-10.6-85.2-524.1-1493.4-592.3-1627.7c-53.2-104.4-147-153.4-268.4-138.5c-100.1,10.7-164,55.4-210.9,147c-72.4,140.6-583.7,1574.4-583.7,1636.2c0,106.5,70.3,170.4,183.2,170.4C7831.3-427.6,7861.2-438.3,7893.1-478.7z"
         id="path14"
         style="fill:#ff0000" /><path
         d="M6495.6-1203.1c-72.4-202.4-132.1-379.2-132.1-394.1c0-17.1,85.2-23.4,277-23.4c153.4,0,277,2.1,277,6.4c0,10.7-279.1,769.1-283.3,775.5C6631.9-836.7,6568-1000.7,6495.6-1203.1z"
         id="path16"
         style="fill:#ff0000" /></g></g></svg>