<?xml version="1.0" encoding="UTF-8" standalone="no"?>
<!-- Svg Vector Icons : http://www.onlinewebfonts.com/icon -->

<svg
   xmlns:dc="http://purl.org/dc/elements/1.1/"
   xmlns:cc="http://creativecommons.org/ns#"
   xmlns:rdf="http://www.w3.org/1999/02/22-rdf-syntax-ns#"
   xmlns:svg="http://www.w3.org/2000/svg"
   xmlns="http://www.w3.org/2000/svg"
   xmlns:sodipodi="http://sodipodi.sourceforge.net/DTD/sodipodi-0.dtd"
   xmlns:inkscape="http://www.inkscape.org/namespaces/inkscape"
   version="1.1"
   x="0px"
   y="0px"
   viewBox="0 0 1000 1000"
   enable-background="new 0 0 1000 1000"
   xml:space="preserve"
   id="svg2"
   inkscape:version="0.91 r13725"
   sodipodi:docname="819bfaefd5052aeff0626d72208a3062.svg"><defs
     id="defs20" /><sodipodi:namedview
     pagecolor="#ffffff"
     bordercolor="#666666"
     borderopacity="1"
     objecttolerance="10"
     gridtolerance="10"
     guidetolerance="10"
     inkscape:pageopacity="0"
     inkscape:pageshadow="2"
     inkscape:window-width="720"
     inkscape:window-height="480"
     id="namedview18"
     showgrid="false"
     inkscape:zoom="0.236"
     inkscape:cx="500"
     inkscape:cy="500"
     inkscape:window-x="0"
     inkscape:window-y="30"
     inkscape:window-maximized="0"
     inkscape:current-layer="svg2" /><metadata
     id="metadata4"> Svg Vector Icons : http://www.onlinewebfonts.com/icon <rdf:RDF><cc:Work
     rdf:about=""><dc:format>image/svg+xml</dc:format><dc:type
       rdf:resource="http://purl.org/dc/dcmitype/StillImage" /></cc:Work></rdf:RDF></metadata><g
     id="g6"
     style="fill:#800080"
     inkscape:export-xdpi="5.8691545"
     inkscape:export-ydpi="5.8691545"><g
       transform="translate(0.000000,511.000000) scale(0.100000,-0.100000)"
       id="g8"
       style="fill:#800080"><path
         d="M1152.1,5006c-274.9-34.1-498.7-144.9-705.4-351.6c-170.5-170.5-287.7-383.6-328.2-598.8c-17-91.6-21.3-1208.3-17-4027.6l6.4-3899.8l59.7-147.1c115.1-289.8,321.8-515.7,594.6-654.2c260-132.1,153.4-127.9,2930.2-121.5l2531.7,6.4l134.2,49c298.3,106.6,551.9,323.9,684.1,586c93.8,183.3,130,336.7,130,543.4v174.7H4389.1c-2073.5,0-2806.6,6.4-2868.4,25.6c-46.9,12.8-125.7,61.8-176.9,106.6c-170.5,149.2-162,46.9-155.6,1949.9l6.4,1685.6l63.9,91.6c36.2,51.1,112.9,121.5,170.5,157.7l102.3,63.9l2821.5,6.4l2819.3,4.3v453.9c0,428.3-2.1,458.2-51.2,558.3c-27.7,59.7-93.8,147-147,193.9c-179,157.7-174.7,157.7-1447,157.7c-1110.3,0-1131.6,0-1201.9,44.8c-40.5,23.4-85.2,66.1-100.2,89.5c-19.2,36.2-27.7,343.1-36.2,1218.9c-10.7,1167.8-10.7,1172.1-59.7,1280.7c-61.8,134.3-174.8,247.2-313.3,311.1l-106.6,49l-1214.7,2.1C1827.7,5018.8,1222.4,5012.4,1152.1,5006z"
         id="path10"
         style="fill:#800080" /><path
         d="M4721.6,3919.2c0-1048.5,2.1-1099.6,42.6-1184.9c83.1-172.6,68.2-170.5,1044.2-176.9c475.2-2.1,976-2.1,1114.5,0l249.3,6.4L5946.9,3789.2L4721.6,5014.5V3919.2z"
         id="path12"
         style="fill:#800080" /><path
         d="M1868.2,74.8c-27.7-12.8-72.5-53.3-95.9-85.2c-44.8-59.7-44.8-78.9-51.1-1363.9c-4.3-1263.7-4.3-1306.3,36.2-1372.4c23.4-38.4,68.2-85.2,102.3-106.6c55.4-36.2,234.4-38.4,3959.4-38.4c3795.3,0,3901.9,2.1,3959.4,40.5c125.7,85.2,121.5,42.6,121.5,1461.9c0,1427.8,2.1,1391.6-127.9,1459.8c-55.4,27.7-515.7,32-3957.3,32C2765.3,102.5,1908.6,96.1,1868.2,74.8z M2818.6-440.9c59.7-42.6,68.2-70.3,219.5-743.7c70.3-315.4,130-577.5,134.2-579.6c2.1-4.3,74.6,253.6,159.8,573.2c85.2,317.5,170.5,607.3,187.5,643.6c83.1,176.9,345.2,179,436.9,6.4c10.7-19.2,91.6-302.6,181.1-628.7c87.4-323.9,162-592.4,166.2-596.7c2.1-4.2,68.2,279.2,147,628.7C4576.7-573,4598-500.6,4647-455.8c115.1,100.2,287.7,21.3,287.7-130c0-93.8-353.8-1532.2-404.9-1649.4c-44.8-102.3-104.4-140.6-219.5-140.6c-63.9,0-98,14.9-144.9,61.8c-51.1,53.3-81,136.4-196,562.6c-74.6,274.9-155.6,571.1-176.9,656.3c-21.3,83.1-44.8,153.4-51.1,153.4c-6.4,0-72.5-228-149.2-505.1c-247.2-920.6-251.5-929.1-436.9-929.1c-108.7,0-170.5,42.6-215.2,149.2c-46.9,110.8-394.2,1545-396.4,1634.5C2541.6-445.2,2701.4-357.8,2818.6-440.9z M8295.3-451.6c38.4-21.3,83.1-68.2,98-100.2c78.9-149.2,654.2-1606.8,654.2-1653.7c0-85.2-91.6-164.1-187.5-164.1c-108.7,0-153.4,51.2-240.8,283.4l-72.5,185.4l-394.2-4.3l-392.1-6.4l-57.5-153.4c-76.7-206.7-127.9-289.8-189.7-304.7c-112.9-29.8-234.4,57.5-234.4,166.2c0,57.5,598.8,1596.1,654.2,1679.3C8007.6-408.9,8171.7-374.8,8295.3-451.6z M5746.6-515.5c21.3-29.8,106.6-311.1,191.8-628.7c83.1-315.4,153.4-577.5,157.7-581.8c2.1-2.1,59.7,204.6,125.7,458.2c181.1,688.3,200.3,745.9,253.6,784.2c55.4,38.4,368.7,44.8,449.7,8.5c29.8-14.9,63.9-53.3,76.7-89.5c12.8-40.5,21.3-358,21.3-854.5c0-709.6-4.3-797-38.4-863.1c-44.8-91.7-127.9-123.6-211-83.1c-108.7,51.2-112.9,81-115.1,805.5v671.3l-181.1-690.4c-189.7-731-206.7-773.6-330.3-799.1c-87.4-17.1-200.3,34.1-238.7,108.7c-19.2,34.1-108.7,358-200.3,720.3L5542-888.4l-10.7-694.7c-10.7-635-14.9-701.1-49-739.5c-98-106.6-253.6-63.9-292,81c-14.9,57.5-21.3,360.1-17,886.5l6.4,801.3l59.7,51.2c57.5,49,74.6,53.3,264.2,46.9C5693.3-462.2,5710.4-466.5,5746.6-515.5z"
         id="path14"
         style="fill:#800080" /><path
         d="M8016.1-1193.2c-70.3-196.1-130-368.7-136.4-381.5c-6.4-21.3,55.4-27.7,270.6-27.7c153.4,0,279.2,4.3,279.2,8.5c0,23.4-260,728.8-272.8,741.6C8148.3-843.7,8084.3-997.1,8016.1-1193.2z"
         id="path16"
         style="fill:#800080" /></g></g></svg>